/* XPM */
static char * C:\Users\User\Desktop\new_assets\bgtile_rock_xpm[] = {
"64 64 162 2",
"  	c #A36C3E",
". 	c #000000",
"+ 	c #E0CD8B",
"@ 	c #CAA55C",
"# 	c #C69E53",
"$ 	c #786E49",
"% 	c #594623",
"& 	c #655C3D",
"* 	c #61583A",
"= 	c #BFAF76",
"- 	c #D9C686",
"; 	c #CFBE80",
"> 	c #4A442F",
", 	c #151616",
"' 	c #AA9B69",
") 	c #D0BE81",
"! 	c #AC9D6A",
"~ 	c #060606",
"{ 	c #333436",
"] 	c #353638",
"^ 	c #363739",
"/ 	c #202022",
"( 	c #292518",
"_ 	c #DECC8A",
": 	c #AD9E6B",
"< 	c #323335",
"[ 	c #342F1E",
"} 	c #37393B",
"| 	c #38393C",
"1 	c #212224",
"2 	c #050504",
"3 	c #51555D",
"4 	c #555962",
"5 	c #565A63",
"6 	c #34363C",
"7 	c #DFCC8B",
"8 	c #464951",
"9 	c #3F4249",
"0 	c #40434A",
"a 	c #26282D",
"b 	c #272317",
"c 	c #A89967",
"d 	c #A99A68",
"e 	c #A89A67",
"f 	c #DCC988",
"g 	c #2E3135",
"h 	c #0C0C0B",
"i 	c #0A0A09",
"j 	c #0A0A0A",
"k 	c #D7C585",
"l 	c #4D5059",
"m 	c #141518",
"n 	c #676862",
"o 	c #767770",
"p 	c #777870",
"q 	c #4C4634",
"r 	c #877B52",
"s 	c #4C5058",
"t 	c #6A6B64",
"u 	c #7B7C74",
"v 	c #272724",
"w 	c #7B704A",
"x 	c #6B6C64",
"y 	c #7C7D74",
"z 	c #7C7D75",
"A 	c #272725",
"B 	c #010000",
"C 	c #515458",
"D 	c #5E6266",
"E 	c #5F6266",
"F 	c #1D1E20",
"G 	c #030200",
"H 	c #494D55",
"I 	c #1A1B1E",
"J 	c #6C552B",
"K 	c #AE9F6B",
"L 	c #51555E",
"M 	c #030100",
"N 	c #B1A26D",
"O 	c #080707",
"P 	c #3F4248",
"Q 	c #42454C",
"R 	c #3B3D44",
"S 	c #060604",
"T 	c #393B41",
"U 	c #545861",
"V 	c #DDCA89",
"W 	c #0B0905",
"X 	c #030304",
"Y 	c #050506",
"Z 	c #050404",
"` 	c #050605",
" .	c #0A0B0C",
"..	c #535760",
"+.	c #9B8D5F",
"@.	c #514A33",
"#.	c #74756D",
"$.	c #75766E",
"%.	c #74756E",
"&.	c #292A2B",
"*.	c #393C42",
"=.	c #8F8358",
"-.	c #1A1A18",
";.	c #7A7B73",
">.	c #20201E",
",.	c #34373C",
"'.	c #7B7C73",
").	c #1F201E",
"!.	c #7E6433",
"~.	c #141415",
"{.	c #606367",
"].	c #606266",
"^.	c #191A1B",
"/.	c #111214",
"(.	c #555861",
"_.	c #17181A",
":.	c #2A2C2F",
"<.	c #45484E",
"[.	c #45474D",
"}.	c #151617",
"|.	c #212123",
"1.	c #101011",
"2.	c #212223",
"3.	c #0C0D0D",
"4.	c #3A3C3F",
"5.	c #3A3C40",
"6.	c #121313",
"7.	c #0B0C0C",
"8.	c #353637",
"9.	c #121212",
"0.	c #2F3032",
"a.	c #0E0F0F",
"b.	c #262729",
"c.	c #131314",
"d.	c #1A1B1C",
"e.	c #1A1A1C",
"f.	c #111213",
"g.	c #0B0B0C",
"h.	c #343537",
"i.	c #111212",
"j.	c #090909",
"k.	c #070707",
"l.	c #222224",
"m.	c #232325",
"n.	c #0D0D0D",
"o.	c #7A6F4A",
"p.	c #151516",
"q.	c #232426",
"r.	c #232425",
"s.	c #161617",
"t.	c #908358",
"u.	c #16140D",
"v.	c #120F07",
"w.	c #DCCA89",
"x.	c #D6C485",
"y.	c #1F1C12",
"z.	c #040404",
"A.	c #D1C082",
"B.	c #8B7F55",
"C.	c #897D53",
"D.	c #887C52",
"E.	c #DAC787",
"                                                                                                                                ",
"              . . . . . . . . . . . . . . . . . . . . . . . . . . . . . . . . . . . . . . . . . . . . . . . . . . .             ",
"          . . . . . . . . . . . . . . . . . . . . . . . . . . . . . . . . . . . . . . . . . . . . . . . . . . . . . .           ",
"        . . . + + + + + + + + + + + + + + + + + + + + + + + + + + + + + + + + + + + + + + + + + + + + + + + + + + . . .         ",
"      . . . @ # # # + + + + + + + + + + + + + + # # # # # # + + + + + + + + + + + + + + # # # # # # + + + + + + + + . . .       ",
"    . . . # # # # # + + + + + + + + + + + + + + # # # # # # + + + + + + + + + + + + + + # # # # # # + + + + + + + + + . . .     ",
"    . . + + + + + + + + + + + + + + + + + + + + + + + + + + + + + + + + + + + + + + + + + + + + + + + + + + + + + + + + . . .   ",
"  . . + + + + + + + + + + + + + + + + + + + + + + + + + + + + + + + + + + + + + + + + + + + + + + + + + + + + + + + + + + . .   ",
"  . . + + + + + + + + + + + + + + + + + + + + + + + + + + + + + + + + + + + + + + + + + + + + + + + + + + + + + + + + + + . .   ",
"  . . + + + + + + + + + + + + + + + + + + + + + + + + + + + + + + + + + + + + + + + + + + + + + + + + + + + + + + + + + + . .   ",
"  . . + + + + + + + + + + $ % % % % % % & & & & & & & & & & & & & & & & % % % % % % & & & & & & * = + + + + # # # # # # + . .   ",
"  . . + + + + + + + + - ; > , , , , , , , , , , , , , , , , , , , , , , , , , , , , , , , , , , , ' ) + + + # # # # # # + . .   ",
"  . . + + + + + + + + ! ~ { ] ] ] ] ] ] ] ] ] ] ] ] ] ] ] ] ] ] ] ] ] ] ] ] ] ] ] ] ] ] ] ] ] ] ^ / ( _ + + + + + + + + + . .   ",
"  . . + + + + + + + + : ~ < ] ] ] ] ] ] ] ] ] ] ] ] ] ] ] ] ] ] ] ] ] ] ] ] ] ] ] ] ] ] ] ] ] ] ] / [ _ + + + + + + + + + . .   ",
"  . . + + + + + + + + : ~ ] } } } } } } } } } } } } } } } } } } } } } } } } } } } } } } } } } } | 1 [ _ + + + + + + + + + . .   ",
"  . . + + + + + + + + : 2 3 4 4 4 4 4 4 4 4 4 4 4 4 4 4 4 4 4 4 4 4 4 4 4 4 4 4 4 4 4 4 4 4 4 4 5 6 [ 7 + + + + + + + + + . .   ",
"  . . + + + + + + + + : 2 3 4 4 4 4 4 4 4 4 4 4 4 4 4 8 9 9 9 9 9 9 9 9 9 9 9 9 9 9 9 9 9 9 9 9 0 a b c d e f + + + + + + . .   ",
"  . . + + + + + + + + : 2 3 4 4 4 4 4 4 4 4 4 4 4 4 5 g h i i i i i i i i i i i i i i i i i i i i j j ~ ~ ~ k + + + + + + . .   ",
"  . . + # # # # # # + : 2 3 4 4 4 4 4 4 4 4 4 4 4 l m n o o o o o o o o o o o o o o o o o o o o o o o o o p q r + + + + + . .   ",
"  . . + # # # # # # + : 2 3 4 4 4 4 4 4 4 4 4 4 4 s . t u u u u u u u u u u u u u u u u u u u u u u u u u u v w + + + + + . .   ",
"  . . + + + + + + + + : 2 3 4 4 4 4 4 4 4 4 4 4 4 s . x y y y y y y y y y y y y y y y y y y y y y y y y y z A w + + + + + . .   ",
"  . . + + + + + + + + : 2 3 4 4 4 4 4 4 4 4 4 4 4 s B C D D D D D D D D D D D D D D D D D D D D D D D D D E F w + + + + + . .   ",
"  . . + + + + + + + + : 2 3 4 4 4 4 4 4 4 4 4 4 4 s G H 4 4 4 4 4 4 4 4 4 4 4 4 4 4 4 4 4 4 4 4 4 4 4 4 4 4 I w + + + + + . .   ",
"  . . + + + + + + + + : 2 3 4 4 4 4 4 4 4 4 4 4 4 s G H 4 4 4 4 4 4 4 4 4 4 4 4 4 4 4 4 4 4 4 4 4 4 4 4 4 4 I w + + + + + . .   ",
"  . . + + + + + + + + : 2 3 4 4 4 4 4 4 4 4 4 4 4 s G H 4 4 4 4 4 4 4 4 4 4 4 4 4 4 4 4 4 4 4 4 4 4 4 4 4 4 I J # # # # + . .   ",
"  . . + + + + + + + + : 2 3 4 4 4 4 4 4 4 4 4 4 4 s G H 4 4 4 4 4 4 4 4 4 4 4 4 4 4 4 4 4 4 4 4 4 4 4 4 4 4 I J # # # # + . .   ",
"  . . + + + + + + + + K 2 L 4 4 4 4 4 4 4 4 4 4 4 s M H 4 4 4 4 4 4 4 4 4 4 4 4 4 4 4 4 4 4 4 4 4 4 4 4 4 4 I w + + + + + . .   ",
"  . . + + + + + + _ N r O P Q Q Q Q Q Q Q Q Q Q Q R S T Q Q Q Q U 4 4 4 4 4 4 4 4 4 4 4 4 4 4 4 4 4 4 4 4 4 I w + + + + + . .   ",
"  . . + + + + + + V W X Y Z Z Z Z Z Z Z Z Z Z Z Z Z Y Z Z Z `  ...4 4 4 4 4 4 4 4 4 4 4 4 4 4 4 4 4 4 4 4 4 I w + + + + + . .   ",
"  . . + + + + + +.@.#.$.$.$.$.$.$.$.$.$.$.$.$.$.$.$.$.$.$.$.$.%.&.*.5 4 4 4 4 4 4 4 4 4 4 4 4 4 4 4 4 4 4 4 I w + + + + + . .   ",
"  . . + + + + + =.-.;.u u u u u u u u u u u u u u u u u u u u ;.>.,.5 4 4 4 4 4 4 4 4 4 4 4 4 4 4 4 4 4 4 4 I w + + + + + . .   ",
"  . . + + + + + =.-.'.y y y y y y y y y y y y y y y y y y y y u ).,.5 4 4 4 4 4 4 4 4 4 4 4 4 4 4 4 4 4 4 4 I w + + + + + . .   ",
"  . . + # # # # !.~.E {.{.{.{.{.{.{.{.{.{.{.{.{.{.{.{.{.{.{.{.].^.,.5 4 4 4 4 4 4 4 4 4 4 4 4 4 4 4 4 4 4 4 I w + + + + + . .   ",
"  . . + # # # # !./.U 4 4 4 4 4 4 4 4 4 4 4 4 4 4 4 4 4 4 4 4 (._.,.5 4 4 4 4 4 4 4 4 4 4 4 4 4 4 4 4 4 4 4 I w + + + + + . .   ",
"  . . + + + + + =./.U 4 4 4 4 4 4 4 4 4 4 4 4 4 4 4 4 4 4 4 4 (._.,.5 4 4 4 4 4 4 4 4 4 4 4 4 4 4 4 4 4 4 5 I w + + + + + . .   ",
"  . . + + + + + =./.U 4 4 4 4 4 4 4 4 4 4 4 4 4 4 4 4 4 4 4 4 (._.:.<.[.[.[.[.[.[.[.[.[.[.[.[.[.[.[.[.[.[.<.}.w + + + + + . .   ",
"  . . + + + + + =./.U 4 4 4 4 4 4 4 4 4 4 4 4 4 4 4 4 4 4 4 4 (._.|.] ] ] ] ] ] ] ] ] ] ] ] ] ] ] ] ] ] ] ] 1.w + + + + + . .   ",
"  . . + + + + + =./.U 4 4 4 4 4 4 4 4 4 4 4 4 4 4 4 4 4 4 4 4 (._.2.] ] ] ] ] ] ] ] ] ] ] ] ] ] ] ] ] ] ] ] 1.w + + + + + . .   ",
"  . . + + + + + =./.U 4 4 4 4 4 4 4 4 4 4 4 4 4 4 4 4 4 4 4 4 (._.2.] ] ] ] ] ] ] ] ] ] ] ] ] ] ] ] ] ] ] ] 1.J # # # # + . .   ",
"  . . + + + + + =./.4 4 4 4 4 4 4 4 4 4 4 4 4 4 4 4 4 4 4 4 4 4 _.2.] ] ] ] ] ] ] ] ] ] ] ] ] ] ] ] ] ] ] ] 1.J # # # # + . .   ",
"  . . + + + + + =.3.4.5.5.5.5.5.5.5.5.5.5.5.5.5.5.5.5.5.5.5.5.4.6.2.] ] ] ] ] ] ] ] ] ] ] ] ] ] ] ] ] ] ] ] 1.w + + + + + . .   ",
"  . . + + + + + =.7.8.] ] ] ] ] ] ] ] ] ] ] ] ] ] ] ] ] ] ] ] ] 9.2.] ] ] ] ] ] ] ] ] ] ] ] ] ] ] ] ] ] < 0.a.w + + + + + . .   ",
"  . . + + + + + =.7.8.] ] ] ] ] ] ] ] ] ] ] ] ] ] ] ] ] ] ] ] ] 9.2.^ ^ ^ ^ ^ ^ ^ ^ ^ ^ ^ ^ ^ ^ ^ ^ ^ ^ b.. ~ w + + + + + . .   ",
"  . . + + + + + =.7.8.] ] ] ] ] ] ] ] ] ] ] ] ] ] ] ] ] ] ] ] ] 9.c.d.e.e.e.e.e.e.e.e.e.e.e.e.e.e.e.e.d.f.. ~ w + + + + + . .   ",
"  . . + # # # # !.g.< h.] ] ] ] ] ] ] ] ] ] ] ] ] ] ] ] ] ] h.< i.j.. . . . . . . . . . . . . . . . . . . . ~ w + + + + + . .   ",
"  . . + # # # # !.k.. l.^ ] ] ] ] ] ] ] ] ] ] ] ] ] ] ] ] ^ m.. n.j.. . . . . . . . . . . . . . . . . . . . . o.+ + + + + . .   ",
"  . . + + + + + =.k.. p.q.r.r.r.r.r.r.r.r.r.r.r.r.r.r.r.r.q.s.. n.j.. . . . . . . . . . . . . . . . . . . . . o.+ + + + + . .   ",
"  . . + + + + + t.u.. . . . . . . . . . . . . . . . . . . . . . n.j.. . . . . . . . . . . . . . . . . . . . v.w + + + + + . .   ",
"  . . + + + + + w.x.y.k.k.k.k.k.k.k.k.k.k.k.k.k.k.k.k.k.k.k.k.k.k.k.k.k.k.k.k.k.k.k.k.k.k.k.k.k.k.k.k.k.z.. A.f + + + + + . .   ",
"  . . + + + + + + V B.C.C.C.C.C.C.C.C.C.C.C.C.C.C.C.C.C.C.C.C.C.C.C.C.C.C.C.C.C.C.C.C.C.C.C.C.C.C.C.C.C.C.D.E.+ + + + + + . .   ",
"  . . + + + + + + + + + + + # # # # # # + + + + + + + + + + + + + + + + # # # # # # + + + + + + + + + + + + # # # # # # + . .   ",
"  . . + + + + + + + + + + + # # # # # # + + + + + + + + + + + + + + + + # # # # # # + + + + + + + + + + + + # # # # # # + . .   ",
"  . . + + + + + + + + + + + + + + + + + + + + + + + + + + + + + + + + + + + + + + + + + + + + + + + + + + + + + + + + + + . .   ",
"  . . + + + + + + + + + + + + + + + + + + + + + + + + + + + + + + + + + + + + + + + + + + + + + + + + + + + + + + + + + + . .   ",
"  . . + + + + + + + + + + + + + + + + + + + + + + + + + + + + + + + + + + + + + + + + + + + + + + + + + + + + + + + + + + . .   ",
"  . . . + + + + + + + + + + + + + + + + + + + + + + + + + + + + + + + + + + + + + + + + + + + + + + + + + + + + + + + + . . .   ",
"  . . . . + + + + + + + + + + + + + + + + + + + + + + + + + + + + + + + + + + + + + + + + + + + + + + + + + + + + + + . . . .   ",
"  . . . . . + + + + + + + + + + + + + + + + + + + + + + + + + + + + + + + + + + + + + + + + + + + + + + + + + + + + . . . .     ",
"    . . . . . # # # # # + + + + + + + + + + + + + + # # # # # # + + + + + + + + + + + + + + # # # # # # + + + + + . . . . .     ",
"      . . . . . . . . . . . . . . . . . . . . . . . . . . . . . . . . . . . . . . . . . . . . . . . . . . . . . . . . . .       ",
"        . . . . . . . . . . . . . . . . . . . . . . . . . . . . . . . . . . . . . . . . . . . . . . . . . . . . . . . .         ",
"          . . . . . . . . . . . . . . . . . . . . . . . . . . . . . . . . . . . . . . . . . . . . . . . . . . . . . .           ",
"              . . . . . . . . . . . . . . . . . . . . . . . . . . . . . . . . . . . . . . . . . . . . . . . . . . .             ",
"                                                                                                                                "};
