/* XPM */
static char * C:\Users\User\Desktop\new_assets\bgtile_bush_xpm[] = {
"64 64 167 2",
"  	c #A36C3E",
". 	c #000000",
"+ 	c #E0CD8B",
"@ 	c #CAA55C",
"# 	c #C69E53",
"$ 	c #DCC989",
"% 	c #C9B87D",
"& 	c #CAB87D",
"* 	c #D5C384",
"= 	c #CDBC7F",
"- 	c #08000F",
"; 	c #A39565",
"> 	c #DECC8A",
", 	c #AC9D6B",
"' 	c #9A9362",
") 	c #427843",
"! 	c #818957",
"~ 	c #A79867",
"{ 	c #D4C284",
"] 	c #DCCA89",
"^ 	c #3C3527",
"/ 	c #2B4E2D",
"( 	c #5EA95E",
"_ 	c #5EA85E",
": 	c #5EAA5E",
"< 	c #447C45",
"[ 	c #07000F",
"} 	c #C6B57B",
"| 	c #433C2B",
"1 	c #5DA85D",
"2 	c #5DA75D",
"3 	c #447B45",
"4 	c #C7B57B",
"5 	c #284C30",
"6 	c #57A464",
"7 	c #57A364",
"8 	c #3F784A",
"9 	c #08000E",
"0 	c #1B4439",
"a 	c #399479",
"b 	c #389478",
"c 	c #399579",
"d 	c #296D59",
"e 	c #0B000B",
"f 	c #399478",
"g 	c #2A6D59",
"h 	c #1B4338",
"i 	c #389277",
"j 	c #389176",
"k 	c #296A57",
"l 	c #0B000C",
"m 	c #121C27",
"n 	c #214250",
"o 	c #214150",
"p 	c #192F3B",
"q 	c #0C0310",
"r 	c #121826",
"s 	c #1F394D",
"t 	c #1F394E",
"u 	c #182939",
"v 	c #0D0410",
"w 	c #3E3728",
"x 	c #1F3A4E",
"y 	c #DFCC8B",
"z 	c #CBB97E",
"A 	c #B6A772",
"B 	c #121A28",
"C 	c #92865D",
"D 	c #DBC888",
"E 	c #383125",
"F 	c #352F24",
"G 	c #0C0612",
"H 	c #0F0612",
"I 	c #110612",
"J 	c #100612",
"K 	c #2B251E",
"L 	c #332C22",
"M 	c #A79967",
"N 	c #DBC988",
"O 	c #C7B67B",
"P 	c #000001",
"Q 	c #220602",
"R 	c #340D03",
"S 	c #2E0A03",
"T 	c #9E9061",
"U 	c #DDCA89",
"V 	c #DECB8A",
"W 	c #CBBA7E",
"X 	c #230601",
"Y 	c #360D02",
"Z 	c #350D02",
"` 	c #2F0A02",
" .	c #A29463",
"..	c #CDBB7F",
"+.	c #210601",
"@.	c #340C01",
"#.	c #330C01",
"$.	c #2D0A01",
"%.	c #A39564",
"&.	c #D6C587",
"*.	c #A39D72",
"=.	c #A49E73",
"-.	c #948F67",
";.	c #3A1309",
">.	c #572012",
",.	c #562012",
"'.	c #4C1C0F",
").	c #767151",
"!.	c #938054",
"~.	c #927F54",
"{.	c #917E54",
"].	c #C4B77F",
"^.	c #CCBD82",
"/.	c #285454",
"(.	c #234C4C",
"_.	c #4A1C10",
":.	c #6D2C1C",
"<.	c #6C2B1B",
"[.	c #602617",
"}.	c #1A3B3B",
"|.	c #285555",
"1.	c #CCBD83",
"2.	c #234B4B",
"3.	c #4A1B10",
"4.	c #6B2B1B",
"5.	c #5F2617",
"6.	c #1A3A3A",
"7.	c #A59F73",
"8.	c #CEBE83",
"9.	c #445F58",
"0.	c #3B5B56",
"a.	c #244C4C",
"b.	c #000D0D",
"c.	c #482219",
"d.	c #692F22",
"e.	c #682F21",
"f.	c #5D2A1E",
"g.	c #000C0C",
"h.	c #1B3C3C",
"i.	c #305755",
"j.	c #415E57",
"k.	c #A9A175",
"l.	c #DDCB8A",
"m.	c #A9A275",
"n.	c #275252",
"o.	c #2A5252",
"p.	c #2E5352",
"q.	c #2D5352",
"r.	c #2C5352",
"s.	c #275353",
"t.	c #737B63",
"u.	c #A58A53",
"v.	c #6C6B54",
"w.	c #445B54",
"x.	c #787E64",
"y.	c #99966F",
"z.	c #706D54",
"A.	c #395A56",
"B.	c #BAAF7B",
"C.	c #9A976F",
"D.	c #7C8165",
"E.	c #ABA375",
"F.	c #ADA476",
"G.	c #CDBE83",
"H.	c #CABC82",
"I.	c #CABB82",
"J.	c #D5C486",
"                                                                                                                                ",
"              . . . . . . . . . . . . . . . . . . . . . . . . . . . . . . . . . . . . . . . . . . . . . . . . . . .             ",
"          . . . . . . . . . . . . . . . . . . . . . . . . . . . . . . . . . . . . . . . . . . . . . . . . . . . . . .           ",
"        . . . + + + + + + + + + + + + + + + + + + + + + + + + + + + + + + + + + + + + + + + + + + + + + + + + + + . . .         ",
"      . . . @ # # # + + + + + + + + + + + + + + # # # # # # + + + + + + + + + + + + + + # # # # # # + + + + + + + + . . .       ",
"    . . . # # # # # + + + + + + + + + + + + + + # # # # # # + + + + + + + + + + + + + + # # # # # # + + + + + + + + + . . .     ",
"    . . + + + + + + + + + + + + + + + + + + + + + + + + + + + + + + + + + + + + + + + + + + + + + + + + + + + + + + + + . . .   ",
"  . . + + + + + + + + + + + + + + + + + + + + + + + + + + + + + + + + + + + + + + + + + + + + + + + + + + + + + + + + + + . .   ",
"  . . + + + + + + + + + + $ % & & & & & & & & & & & & & & & & & & & & & & & & & & & & & & & & & & % * + + + + + + + + + + . .   ",
"  . . + + + + + + + + + + = - - - - - - - - - - - - - - - - - - - - - - - - - - - - - - - - - - - - ; + + + + + + + + + + . .   ",
"  . . + + + + + + + + > , ' ) ) ) ) ) ) ) ) ) ) ) ) ) ) ) ) ) ) ) ) ) ) ) ) ) ) ) ) ) ) ) ) ) ) ) ) ! ~ { + # # # # # # + . .   ",
"  . . + + + + + + + + ] ^ / ( _ _ _ _ _ _ _ _ _ _ _ _ _ _ _ _ _ _ _ _ _ _ _ _ _ _ _ _ _ _ _ _ _ _ : < [ } + # # # # # # + . .   ",
"  . . + + + + + + + + ] | / 1 2 2 2 2 2 2 2 2 2 2 2 2 2 2 2 2 2 2 2 2 2 2 2 2 2 2 2 2 2 2 2 2 2 2 _ 3 [ 4 + + + + + + + + . .   ",
"  . . + + + + + + + + ] | / 1 2 2 2 2 2 2 2 2 2 2 2 2 2 2 2 2 2 2 2 2 2 2 2 2 2 2 2 2 2 2 2 2 2 2 _ 3 [ 4 + + + + + + + + . .   ",
"  . . + + + + + + + + ] | / 1 2 2 2 2 2 2 2 2 2 2 2 2 2 2 2 2 2 2 2 2 2 2 2 2 2 2 2 2 2 2 2 2 2 2 _ 3 [ 4 + + + + + + + + . .   ",
"  . . + + + + + + + + ] | 5 6 7 7 7 7 7 7 7 7 7 7 7 7 7 7 7 7 7 7 7 7 7 7 7 7 7 7 7 7 7 7 7 7 7 7 6 8 9 4 + + + + + + + + . .   ",
"  . . + + + + + + + + ] | 0 a b b b b b b b b b b b b b b b b b b b b b b b b b b b b b b b b b b c d e 4 + + + + + + + + . .   ",
"  . . + + + + + + + + ] | 0 c f f f f f f f f f f f f f f f f f f f f f f f f f f f f f f f f f f c g e 4 + + + + + + + + . .   ",
"  . . + # # # # # # + ] | 0 c f f f f f f f f f f f f f f f f f f f f f f f f f f f f f f f f f f c g e 4 + + + + + + + + . .   ",
"  . . + # # # # # # + ] | 0 c f f f f f f f f f f f f f f f f f f f f f f f f f f f f f f f f f f c g e 4 + + + + + + + + . .   ",
"  . . + + + + + + + + ] | 0 c f f f f f f f f f f f f f f f f f f f f f f f f f f f f f f f f f f c g e 4 + + + + + + + + . .   ",
"  . . + + + + + + + + ] | 0 c f f f f f f f f f f f f f f f f f f f f f f f f f f f f f f f f f f c g e 4 + + + + + + + + . .   ",
"  . . + + + + + + + + ] | 0 c f f f f f f f f f f f f f f f f f f f f f f f f f f f f f f f f f f c g e 4 + + + + + + + + . .   ",
"  . . + + + + + + + + ] | 0 c f f f f f f f f f f f f f f f f f f f f f f f f f f f f f f f f f f c g e 4 + + + + + + + + . .   ",
"  . . + + + + + + + + ] | 0 c f f f f f f f f f f f f f f f f f f f f f f f f f f f f f f f f f f c g e 4 + # # # # # # + . .   ",
"  . . + + + + + + + + ] | 0 c f f f f f f f f f f f f f f f f f f f f f f f f f f f f f f f f f f c g e 4 + # # # # # # + . .   ",
"  . . + + + + + + + + ] | 0 c f f f f f f f f f f f f f f f f f f f f f f f f f f f f f f f f f f c g e 4 + + + + + + + + . .   ",
"  . . + + + + + + + + ] | 0 c f f f f f f f f f f f f f f f f f f f f f f f f f f f f f f f f f f c g e 4 + + + + + + + + . .   ",
"  . . + + + + + + + + ] | 0 c f f f f f f f f f f f f f f f f f f f f f f f f f f f f f f f f f f c g e 4 + + + + + + + + . .   ",
"  . . + + + + + + + + ] | 0 c f f f f f f f f f f f f f f f f f f f f f f f f f f f f f f f f f f c g e 4 + + + + + + + + . .   ",
"  . . + + + + + + + + ] | 0 c f f f f f f f f f f f f f f f f f f f f f f f f f f f f f f f f f f c g e 4 + + + + + + + + . .   ",
"  . . + + + + + + + + ] | 0 c f f f f f f f f f f f f f f f f f f f f f f f f f f f f f f f f f f c g e 4 + + + + + + + + . .   ",
"  . . + # # # # # # + ] | 0 c f f f f f f f f f f f f f f f f f f f f f f f f f f f f f f f f f f c g e 4 + + + + + + + + . .   ",
"  . . + # # # # # # + ] | 0 c f f f f f f f f f f f f f f f f f f f f f f f f f f f f f f f f f f c g e 4 + + + + + + + + . .   ",
"  . . + + + + + + + + ] | h i j j j j j j j j j j j j j j j j j j j j j j j j j j j j j j j j j j i k l 4 + + + + + + + + . .   ",
"  . . + + + + + + + + ] | m n o o o o o o o o o o o o o o o o o o o o o o o o o o o o o o o o o o n p q 4 + + + + + + + + . .   ",
"  . . + + + + + + + + ] | r s s s s s s s s s s s s s s s s s s s s s s s s s s s s s s s s s s s t u v 4 + + + + + + + + . .   ",
"  . . + + + + + + + + ] | r s s s s s s s s s s s s s s s s s s s s s s s s s s s s s s s s s s s t u v 4 + + + + + + + + . .   ",
"  . . + + + + + + + + ] | r s s s s s s s s s s s s s s s s s s s s s s s s s s s s s s s s s s s t u v 4 + # # # # # # + . .   ",
"  . . + + + + + + + + ] w r x s s s s s s s s s s s s s s s s s s s s s s s s s s s s s s s s s s x u v } + # # # # # # + . .   ",
"  . . + + + + + + + + y z A B B B B B B B B B B B B B B B B B B B B B B B B B B B B B B B B B B B B C & D + + + + + + + + . .   ",
"  . . + + + + + + + + + + = E ^ ^ ^ ^ ^ F G H I I I I I I I I I I I I I I I I I I J G K ^ ^ ^ ^ ^ L M + + + + + + + + + + . .   ",
"  . . + + + + + + + + + + y N N N N N N O P Q R R R R R R R R R R R R R R R R R R S P T U N N N N N V + + + + + + + + + + . .   ",
"  . . + + + + + + + + + + + + + + + + + W . X Y Z Z Z Z Z Z Z Z Z Z Z Z Z Z Z Z Z ` .  .+ + + + + + + + + + + + + + + + + . .   ",
"  . . + # # # # # # + + + + + + + + + + ... +.@.#.#.#.#.#.#.#.#.#.#.#.#.#.#.#.#.#.$.. %.# # # # # # + + + + + + + + + + + . .   ",
"  . . + # # # # # # + + + &.*.=.=.=.=.=.-.. ;.>.,.,.,.,.,.,.,.,.,.,.,.,.,.,.,.,.,.'.. ).!.~.~.~.~.{.].+ + + + + + + + + + . .   ",
"  . . + + + + + + + + + + ^././././././.(.. _.:.<.<.<.<.<.<.<.<.<.<.<.<.<.<.<.<.<.[.. }.|./././././.*.+ + + + + + + + + + . .   ",
"  . . + + + + + + + + + + 1././././././.2.. 3.<.4.4.4.4.4.4.4.4.4.4.4.4.4.4.4.4.4.5.. 6.|./././././.7.+ + + + + + + + + + . .   ",
"  . . + + + + + + + + + + 8.9.0././././.a.b.c.d.e.e.e.e.e.e.e.e.e.e.e.e.e.e.e.e.e.f.g.h.|./././.i.j.k.+ + + + + + + + + + . .   ",
"  . . + + + + + + + + + + y l.m./././././.n.o.p.q.q.q.q.q.q.q.q.q.q.q.q.q.q.q.q.q.r.n.s././././.t.l.V + + + + + + + + + + . .   ",
"  . . + + + + + + + + + + + # u.v.w././././././././././././././././././././././././././././.i.x.y.+ + + + + # # # # # # + . .   ",
"  . . + + + + + + + + + + + # # # z././././././././././././././././././././././././././././.A.] + + + + + + # # # # # # + . .   ",
"  . . + + + + + + + + + + + + + + B.m.m.C././././././././././././././././././././././.D.E.m.F.l.+ + + + + + + + + + + + + . .   ",
"  . . + + + + + + + + + + + + + + + + + G././././././././././././././././././././././.=.+ + + + + + + + + + + + + + + + + . .   ",
"  . . + + + + + + + + + + + + + + + + + ] H.H.H.H.H.H.H.H.H.H.H.H.H.H.H.H.H.H.H.H.H.I.J.+ + + + + + + + + + + + + + + + + . .   ",
"  . . . + + + + + + + + + + + + + + + + + + + + + + + + + + + + + + + + + + + + + + + + + + + + + + + + + + + + + + + + . . .   ",
"  . . . . + + + + + + + + + + + + + + + + + + + + + + + + + + + + + + + + + + + + + + + + + + + + + + + + + + + + + + . . . .   ",
"  . . . . . + + + + + + + + + + + + + + + + + + + + + + + + + + + + + + + + + + + + + + + + + + + + + + + + + + + + . . . .     ",
"    . . . . . # # # # # + + + + + + + + + + + + + + # # # # # # + + + + + + + + + + + + + + # # # # # # + + + + + . . . . .     ",
"      . . . . . . . . . . . . . . . . . . . . . . . . . . . . . . . . . . . . . . . . . . . . . . . . . . . . . . . . . .       ",
"        . . . . . . . . . . . . . . . . . . . . . . . . . . . . . . . . . . . . . . . . . . . . . . . . . . . . . . . .         ",
"          . . . . . . . . . . . . . . . . . . . . . . . . . . . . . . . . . . . . . . . . . . . . . . . . . . . . . .           ",
"              . . . . . . . . . . . . . . . . . . . . . . . . . . . . . . . . . . . . . . . . . . . . . . . . . . .             ",
"                                                                                                                                "};
