/* XPM */
static char * C:\Users\User\Desktop\fish_xpm[] = {
"64 64 274 2",
"  	c #A36C3E",
". 	c #000000",
"+ 	c #E0CD8B",
"@ 	c #CAA55C",
"# 	c #C69E53",
"$ 	c #3AC8E1",
"% 	c #3ACCE1",
"& 	c #3AB9E1",
"* 	c #0E0F5B",
"= 	c #1C1C1C",
"- 	c #3ABBE1",
"; 	c #173496",
"> 	c #1947A0",
", 	c #121371",
"' 	c #3ADBE1",
") 	c #3AE1DE",
"! 	c #3AE0E1",
"~ 	c #3ADDE1",
"{ 	c #21A8D6",
"] 	c #195BA4",
"^ 	c #1B6AB1",
"/ 	c #121474",
"( 	c #1B58AC",
"_ 	c #3ADAE1",
": 	c #3AD7E1",
"< 	c #11126B",
"[ 	c #34B4E0",
"} 	c #1B7FAE",
"| 	c #3ABCE1",
"1 	c #26A5DD",
"2 	c #1E7FC5",
"3 	c #229FDC",
"4 	c #229DDC",
"5 	c #1D73BA",
"6 	c #22A3D9",
"7 	c #219AD3",
"8 	c #219FD7",
"9 	c #23ABDD",
"0 	c #1E7BC2",
"a 	c #2198D6",
"b 	c #183A9A",
"c 	c #111370",
"d 	c #1B61B1",
"e 	c #0E0F58",
"f 	c #30B6DF",
"g 	c #36B9E0",
"h 	c #1944A4",
"i 	c #1F75C6",
"j 	c #21A6D5",
"k 	c #18629D",
"l 	c #22A0DA",
"m 	c #1E77C1",
"n 	c #1943A0",
"o 	c #29AADE",
"p 	c #2BAFDE",
"q 	c #1F8AC8",
"r 	c #94E6EE",
"s 	c #6DD4E8",
"t 	c #37B8E0",
"u 	c #30B1DF",
"v 	c #2AA7DE",
"w 	c #29A9DE",
"x 	c #37BAE0",
"y 	c #34B8E0",
"z 	c #1D6CBB",
"A 	c #1E7BC5",
"B 	c #33B3DF",
"C 	c #27A3DE",
"D 	c #1F82C8",
"E 	c #141684",
"F 	c #37B6E0",
"G 	c #0C0D4E",
"H 	c #1A44A9",
"I 	c #1E71C5",
"J 	c #1A58A9",
"K 	c #1B83B1",
"L 	c #1E96C2",
"M 	c #1D84BC",
"N 	c #BFF5F4",
"O 	c #F9FEFE",
"P 	c #E6FBFB",
"Q 	c #75D8EA",
"R 	c #D7F9F8",
"S 	c #AAF2F1",
"T 	c #13157D",
"U 	c #ADF2F1",
"V 	c #84E2EC",
"W 	c #3AC5E1",
"X 	c #B6F4F3",
"Y 	c #96EAEF",
"Z 	c #9BEEEF",
"` 	c #C9F7F6",
" .	c #99EDEF",
"..	c #33B7DF",
"+.	c #A1F0EF",
"@.	c #3ABBE0",
"#.	c #A7F1F1",
"$.	c #94EBEE",
"%.	c #30B0DF",
"&.	c #3AC0E1",
"*.	c #32B6DF",
"=.	c #229ADA",
"-.	c #259FDD",
";.	c #2091D1",
">.	c #131579",
",.	c #1E79C1",
"'.	c #207FCE",
").	c #181B9C",
"!.	c #1C84B5",
"~.	c #26AEDD",
"{.	c #FFFFFF",
"].	c #C4E3EA",
"^.	c #10126A",
"/.	c #DCF7FA",
"(.	c #BDF5F4",
"_.	c #E1FAFA",
":.	c #27ADDE",
"<.	c #1971A3",
"[.	c #D2F8F7",
"}.	c #D8F9F8",
"|.	c #B8F4F3",
"1.	c #BEF5F4",
"2.	c #CCF7F6",
"3.	c #9BECEF",
"4.	c #B1F3F2",
"5.	c #ABF2F1",
"6.	c #7FDEEB",
"7.	c #88E5ED",
"8.	c #DBF9F9",
"9.	c #CEF7F7",
"0.	c #B4F3F2",
"a.	c #A7F0F1",
"b.	c #A4EDF1",
"c.	c #4FC7E4",
"d.	c #ABECF2",
"e.	c #26B5DD",
"f.	c #32C1DF",
"g.	c #23AFDD",
"h.	c #1E7DBF",
"i.	c #1D74BE",
"j.	c #1D71BC",
"k.	c #1947A1",
"l.	c #27AFDE",
"m.	c #EDFCFC",
"n.	c #A9D3DD",
"o.	c #F0FDFC",
"p.	c #151787",
"q.	c #FEFFFF",
"r.	c #E4FBFA",
"s.	c #D4F8F8",
"t.	c #D9F9F9",
"u.	c #92E9EE",
"v.	c #22AED9",
"w.	c #1E7BC1",
"x.	c #7BBDD2",
"y.	c #1D79BC",
"z.	c #F3FDFD",
"A.	c #E9FCFB",
"B.	c #FBFEFE",
"C.	c #9ED2E5",
"D.	c #22ACDA",
"E.	c #1E84C2",
"F.	c #1E7DC2",
"G.	c #1C6EB4",
"H.	c #18629C",
"I.	c #34B6E0",
"J.	c #3AD5E1",
"K.	c #81BFD3",
"L.	c #D7F4F9",
"M.	c #56A0BB",
"N.	c #96C1D1",
"O.	c #93BFD0",
"P.	c #ECFCFC",
"Q.	c #E2FBFA",
"R.	c #84B9C5",
"S.	c #8CBEC7",
"T.	c #166991",
"U.	c #141682",
"V.	c #171992",
"W.	c #1B65B0",
"X.	c #1D71BA",
"Y.	c #194FA4",
"Z.	c #1B71B0",
"`.	c #3AC6E1",
" +	c #7ABED2",
".+	c #A5D4DD",
"++	c #F7FEFE",
"@+	c #C4F2F6",
"#+	c #6EBDD3",
"$+	c #21AAD2",
"%+	c #C6EDF6",
"&+	c #DDFAF9",
"*+	c #DCFAF9",
"=+	c #CBF7F6",
"-+	c #C5F6F5",
";+	c #B7F2F4",
">+	c #ACE3F0",
",+	c #71BCD0",
"'+	c #1FAACC",
")+	c #2DB1DE",
"!+	c #2BB1DE",
"~+	c #30B4DF",
"{+	c #1C86B7",
"]+	c #1B5EAC",
"^+	c #1D6EBB",
"/+	c #1A52A6",
"(+	c #1A71AA",
"_+	c #3AC7E1",
":+	c #25B2DD",
"<+	c #33BFDF",
"[+	c #9ED6E4",
"}+	c #8CC9D9",
"|+	c #1F9BC6",
"1+	c #C8F6F6",
"2+	c #A4F1F0",
"3+	c #73D9E9",
"4+	c #D5F9F8",
"5+	c #F1FDFD",
"6+	c #EEFCFC",
"7+	c #A7F1F0",
"8+	c #CDF7F6",
"9+	c #99D8EB",
"0+	c #8DCEDE",
"a+	c #94D2E2",
"b+	c #56ADC4",
"c+	c #1E9AC5",
"d+	c #1F9BCA",
"e+	c #20A3D1",
"f+	c #3AD3E1",
"g+	c #2DB2DE",
"h+	c #1F8FC8",
"i+	c #194BA0",
"j+	c #1A5BAA",
"k+	c #18439D",
"l+	c #3AE1DF",
"m+	c #1F96C6",
"n+	c #1F98C8",
"o+	c #20A1CE",
"p+	c #99DFEF",
"q+	c #72C7E2",
"r+	c #A3E6F1",
"s+	c #8FDCEE",
"t+	c #9BE3EF",
"u+	c #A1E5F0",
"v+	c #9CE4F0",
"w+	c #A4E8F1",
"x+	c #A1E8F0",
"y+	c #92DEEE",
"z+	c #91DDEE",
"A+	c #83D8EC",
"B+	c #2AB9DE",
"C+	c #23A9DD",
"D+	c #1E8CBF",
"E+	c #1B7FB1",
"F+	c #1B81B0",
"G+	c #3ACDE1",
"H+	c #1C84B3",
"I+	c #1D89B8",
"J+	c #1D8EBB",
"K+	c #1E9FC2",
"L+	c #1EA2C3",
"M+	c #1EA3C2",
"N+	c #1EA0C3",
"O+	c #1EA2C5",
"P+	c #18659A",
"Q+	c #141680",
"R+	c #151785",
"S+	c #1D8CBB",
"T+	c #1D90BE",
"U+	c #33B5DF",
"V+	c #195B9F",
"W+	c #1F86C6",
"X+	c #1E91C1",
"Y+	c #1B7FB0",
"                                                                                                                                ",
"              . . . . . . . . . . . . . . . . . . . . . . . . . . . . . . . . . . . . . . . . . . . . . . . . . . .             ",
"          . . . . . . . . . . . . . . . . . . . . . . . . . . . . . . . . . . . . . . . . . . . . . . . . . . . . . .           ",
"        . . . + + + + + + + + + + + + + + + + + + + + + + + + + + + + + + + + + + + + + + + + + + + + + + + + + + . . .         ",
"      . . . @ # # # + + + + + + + + + + + + + + # # # # # # + + + + + + + + + + + + + + # # # # # # + + + + + + + + . . .       ",
"    . . . # # # # # + + + + + + + + + + + + + + # # # # # # + + + + + + + + + + + + + + # # # # # # + + + + + + + + + . . .     ",
"    . . + + + + + + + + + + + + + + + + + + + + + + + + + + + + + + + + + + + + + + + + + + + + + + + + + + + + + + + + . . .   ",
"  . . + + + + + + + + + + + + + + + + + + + + + + + + + + + + + + + + + + + + + + + + + + + + + + + + + + + + + + + + + + . .   ",
"  . . + + + + + + + + + + + + + + + + + + + + + + + + + + + + + + + + + + + + + + + + + + + + + + + + + + + + + + + + + + . .   ",
"  . . + + + + + + + + + + + + + + + + + + + + + + + + + + + + + + + + + + + + + + + + + + + + + + + + + + + + + + + + + + . .   ",
"  . . + + + + + + + + + + + # # # # # # + + + + + + + + + + + + + + + + # # # # # # + + + + + + + + + + + + # # # # # # + . .   ",
"  . . + + + + + + + + + + + # # # # # # + + + + + + + + + + + + + + + + # # # # # # + + + + + + + + + + + + # # # # # # + . .   ",
"  . . + + + + + + + + + + + + + + + + + + + + + + + + + + + + + + + + + + + + + + + + + + + + + + + + + + + + + + + + + + . .   ",
"  . . + + + + + + + + + + + + + + + + + + + + + + + + + + + + + + + + + + + + + + + + + + + + + + + + + + + + + + + + + + . .   ",
"  . . + + + + + + + + + + + + + + + + + + + + + + + + + + + + + + + + + + + + + + + + + + + + + + + + + + + + + + + + + + . .   ",
"  . . + + + + + + + + + + + + + + + + + + + + + + + + + + + + + + + + + + + + + + + + + + + + + + + + + + + + + + + + + + . .   ",
"  . . + + + + + + + + + + + + + + + + + + + + + + + + + + + + + + + + + + + + + + + + + + + + + + + + + + + + + + + + + + . .   ",
"  . . + + + + + + + + + + + + + + + + + + + + + + + + + + + + + + + + + + + + + + + + + + + + + + + + + + + + + + + + + + . .   ",
"  . . + # # # # # # + + + + + + + + + + + + + + # # # # # # + + + + + + + + + + + + + + # # # # # # + + + + + + + + + + + . .   ",
"  . . + # # # # # # + + + + + + + + + + + + + + # # # # # # + + + + + + + + + + + + + + # # # # # # + + + + + + + + + + + . .   ",
"  . . + + + + + + + + + + + + + + + + + + + + + + + + + + + + + + + + + + + + + + + + + + + + + + + + + + + + + + + + + + . .   ",
"  . . + + + + + + + + + + + + + + + + + + + + + + + + + + + + + + + + + + + + + + + + + + + + + + + + + + + + + + + + + + . .   ",
"  . . + + + + + + + + + + + + + + + + + + + + + + + + + + + + $ % + + + + + + + + + + + + + + + + + + + + + + + + + + + + . .   ",
"  . . + + + + + + + + + + + + + + + + + + + + + + + + + + + & * = + + + + + + + + + + + + + + + + + + + + + + + + + + + + . .   ",
"  . . + + + + + + + + + + + # # # # # # + + + + + + + + + - ; > , ' + + # # # # # # + + + + + + + + + + + + # # # # # # + . .   ",
"  . . + + + + + + + + + + + # # # # # # + + + + + ) ! ~ { ] ^ / ( = + ! # # # # # # + + + + + + + + + + ) _ : # # # # # + . .   ",
"  . . + + + + + + + + + + + + + + + + + + < = = = = = = = = = = = = = = + + + + + + + + + + + + + + + [ = = } + + + + + + . .   ",
"  . . + + + + + + + + + + + + ! ! | = = = 1 2 3 4 5 6 7 8 9 0 a b c d e = = = f + + + + + + + + + + g h i ( } + + + + + + . .   ",
"  . . + + + + + + + + + + + j = = k l m n o p q r s t u v w u x y z v A B C D E = = = + + + + + F G H I J K + + + + + + + . .   ",
"  . . + + + + + + + + + + L M N O P Q R S T U V W X Y Z ` N  .x ..+.@.#.$.%.&.*.=.-.;.= = = = = >.,.'.).!.+ + + + + + + + . .   ",
"  . . + + + + + + + + + = ~.{.].^./.{.(._.:.<.[.[.}.|.1.2. .3.4.$ 5.6.7.8.N 9.0.a.b.c.d.e.f.g.h.i.j.k.l.! + + + + + + + + . .   ",
"  . . + + + + + + + + + = m.{.n.* o.{.{.{.{.p.q.{.{.{.{.{.{.{.O {.q.{.r.{.{.{.{.{.{.s.{.{.{.t.u.v.w.^ t + + + + + + + + + . .   ",
"  . . + # # # # # # + + + x.[.{.{.{.{.{.{.{.y.{.q.z.A.{.{.{.{.{.{.{.{.{.{.{.{.{.{.{.{.B.r.r.C.D.E.F.G.H.I.+ + + + + + + + . .   ",
"  . . + # # # # # # + + + J.K.A.{.{.{.{.{.{.O L.M.N.O.z.{.{.{.{.{.{.{.{.{.{.P.{.{.A.Q.4.R.S.T.U.V.W.X.Y.Z.&.+ + + + + + + . .   ",
"  . . + + + + + + + + + + + `. +.+R B.{.z.++{.@+#+$+%+{.{.{.{.{.{.A.{.&+*+=+2.-+;+>+,+'+)+!+)+~+{+p.]+^+/+(+_++ + + + + + . .   ",
"  . . + + + + + + + + + + + + % :+<+[+}+|+` ` 1+2+3+4+5+6+o.r.1.=+8.7+8+9+0+a+b+c+d+e+&.+ + + + f+g+h+i+j+k+c++ + + + + + . .   ",
"  . . + + + + + + + + + + + + + + l+m+n+m+o+p+q+r+s+t+u+v+w+x+y+z+A+B+C+D+E+F+F+- + + + + + + + + + G+H+{+I+f + + + + + + . .   ",
"  . . + + + + + + + + + + + + + + + + + + J+K+L+M+L+N+L+O+P+Q+R+, S+J+T++ + + + + + + + + + + + + + + + + + + + + + + + + . .   ",
"  . . + + + + + + + + + + + # # # # # # + + + + + + + + + U+V+W+X++ + + # # # # # # + + + + + + + + + + + + # # # # # # + . .   ",
"  . . + + + + + + + + + + + # # # # # # + + + + + + + + + + & = Y++ + + # # # # # # + + + + + + + + + + + + # # # # # # + . .   ",
"  . . + + + + + + + + + + + + + + + + + + + + + + + + + + + + + + + + + + + + + + + + + + + + + + + + + + + + + + + + + + . .   ",
"  . . + + + + + + + + + + + + + + + + + + + + + + + + + + + + + + + + + + + + + + + + + + + + + + + + + + + + + + + + + + . .   ",
"  . . + + + + + + + + + + + + + + + + + + + + + + + + + + + + + + + + + + + + + + + + + + + + + + + + + + + + + + + + + + . .   ",
"  . . + + + + + + + + + + + + + + + + + + + + + + + + + + + + + + + + + + + + + + + + + + + + + + + + + + + + + + + + + + . .   ",
"  . . + # # # # # # + + + + + + + + + + + + + + # # # # # # + + + + + + + + + + + + + + # # # # # # + + + + + + + + + + + . .   ",
"  . . + # # # # # # + + + + + + + + + + + + + + # # # # # # + + + + + + + + + + + + + + # # # # # # + + + + + + + + + + + . .   ",
"  . . + + + + + + + + + + + + + + + + + + + + + + + + + + + + + + + + + + + + + + + + + + + + + + + + + + + + + + + + + + . .   ",
"  . . + + + + + + + + + + + + + + + + + + + + + + + + + + + + + + + + + + + + + + + + + + + + + + + + + + + + + + + + + + . .   ",
"  . . + + + + + + + + + + + + + + + + + + + + + + + + + + + + + + + + + + + + + + + + + + + + + + + + + + + + + + + + + + . .   ",
"  . . + + + + + + + + + + + + + + + + + + + + + + + + + + + + + + + + + + + + + + + + + + + + + + + + + + + + + + + + + + . .   ",
"  . . + + + + + + + + + + + # # # # # # + + + + + + + + + + + + + + + + # # # # # # + + + + + + + + + + + + # # # # # # + . .   ",
"  . . + + + + + + + + + + + # # # # # # + + + + + + + + + + + + + + + + # # # # # # + + + + + + + + + + + + # # # # # # + . .   ",
"  . . + + + + + + + + + + + + + + + + + + + + + + + + + + + + + + + + + + + + + + + + + + + + + + + + + + + + + + + + + + . .   ",
"  . . + + + + + + + + + + + + + + + + + + + + + + + + + + + + + + + + + + + + + + + + + + + + + + + + + + + + + + + + + + . .   ",
"  . . + + + + + + + + + + + + + + + + + + + + + + + + + + + + + + + + + + + + + + + + + + + + + + + + + + + + + + + + + + . .   ",
"  . . . + + + + + + + + + + + + + + + + + + + + + + + + + + + + + + + + + + + + + + + + + + + + + + + + + + + + + + + + . . .   ",
"  . . . . + + + + + + + + + + + + + + + + + + + + + + + + + + + + + + + + + + + + + + + + + + + + + + + + + + + + + + . . . .   ",
"  . . . . . + + + + + + + + + + + + + + + + + + + + + + + + + + + + + + + + + + + + + + + + + + + + + + + + + + + + . . . .     ",
"    . . . . . # # # # # + + + + + + + + + + + + + + # # # # # # + + + + + + + + + + + + + + # # # # # # + + + + + . . . . .     ",
"      . . . . . . . . . . . . . . . . . . . . . . . . . . . . . . . . . . . . . . . . . . . . . . . . . . . . . . . . . .       ",
"        . . . . . . . . . . . . . . . . . . . . . . . . . . . . . . . . . . . . . . . . . . . . . . . . . . . . . . . .         ",
"          . . . . . . . . . . . . . . . . . . . . . . . . . . . . . . . . . . . . . . . . . . . . . . . . . . . . . .           ",
"              . . . . . . . . . . . . . . . . . . . . . . . . . . . . . . . . . . . . . . . . . . . . . . . . . . .             ",
"                                                                                                                                "};
